PathFileType	4	(X/Y/Z)	/Users/itak/Documents/Research/Walk-IL/dataset/trc/00341_00011.trc
DataRate	CameraRate	NumFrames	NumMarkers	Units	OrigDataRate	OrigDataStartFrame	OrigNumFrames
100.000000	100.000000	4	53	mm	100.000000	261	697
Frame#	Time	RPSI			LPSI			L3			STRN			T10			C7			CLAV			RBAK			LBAK			LSHO			LUPA			LAEL			LAOL			LWTS			LWPS			LFRA			LIFD			LHPS			LHTS			RSHO			RUPA			RAEL			RAOL			RWTS			RWPS			RFRA			RIFD			RHTS			RHPS			RBHD			LFHD			RFHD			LBHD			LHIP			RHIP			RASI			LASI			LKNE			LTHI			LANK			LTIP			LTOE			LMT1			LMT5			LHEE			RKNE			RTHI			RANK			RTIP			RTOE			RMT1			RMT5			RHEE			
		X1	Y1	Z1	X2	Y2	Z2	X3	Y3	Z3	X4	Y4	Z4	X5	Y5	Z5	X6	Y6	Z6	X7	Y7	Z7	X8	Y8	Z8	X9	Y9	Z9	X10	Y10	Z10	X11	Y11	Z11	X12	Y12	Z12	X13	Y13	Z13	X14	Y14	Z14	X15	Y15	Z15	X16	Y16	Z16	X17	Y17	Z17	X18	Y18	Z18	X19	Y19	Z19	X20	Y20	Z20	X21	Y21	Z21	X22	Y22	Z22	X23	Y23	Z23	X24	Y24	Z24	X25	Y25	Z25	X26	Y26	Z26	X27	Y27	Z27	X28	Y28	Z28	X29	Y29	Z29	X30	Y30	Z30	X31	Y31	Z31	X32	Y32	Z32	X33	Y33	Z33	X34	Y34	Z34	X35	Y35	Z35	X36	Y36	Z36	X37	Y37	Z37	X38	Y38	Z38	X39	Y39	Z39	X40	Y40	Z40	X41	Y41	Z41	X42	Y42	Z42	X43	Y43	Z43	X44	Y44	Z44	X45	Y45	Z45	X46	Y46	Z46	X47	Y47	Z47	X48	Y48	Z48	X49	Y49	Z49	X50	Y50	Z50	X51	Y51	Z51	X52	Y52	Z52	X53	Y53	Z53	

262	2.61	937.6114501953125	942.9121704101562	195.0171661376953	811.16748046875	938.3118286132812	221.8072662353516	886.3912963867188	997.8959350585938	208.8103179931641	799.7801513671875	1188.145263671875	-0.9262657165527344	889.8565673828125	1115.2763671875	221.4591827392578	856.06396484375	1364.129028320312	197.1893920898438	806.0048217773438	1311.303833007812	48.92521667480469	941.2630004882812	1227.469604492188	215.1465606689453	769.8675537109375	1322.943603515625	246.150146484375	683.8228149414062	1334.954223632812	188.6076965332031	643.9000244140625	1213.263793945312	236.6378784179688	659.4794921875	1010.807373046875	249.6259460449219	740.0161743164062	1012.2490234375	271.620361328125	679.0366821289062	755.8784790039062	179.4919891357422	657.1093139648438	749.2888793945312	244.9713745117188	660.0809936523438	905.4981079101562	254.6377716064453	719.421875	599.526123046875	196.1816101074219	679.8349609375	681.7100830078125	253.5648193359375	679.2653198242188	674.9652099609375	190.3224639892578	987.353759765625	1358.745727539062	87.33937072753906	1052.384033203125	1296.463012695312	74.65674591064453	1106.98291015625	1037.45556640625	31.91396903991699	1028.714599609375	1015.390258789062	80.03560638427734	1053.003295898438	838.6058959960938	-117.3049697875977	1125.63916015625	821.1051025390625	-101.4390640258789	1117.127197265625	976.119384765625	-6.241963386535645	1056.59423828125	675.468994140625	-171.86865234375	1061.872314453125	749.3173828125	-173.0403747558594	1120.874755859375	742.3410034179688	-136.9419860839844	902.4723510742188	1577.875	105.4062271118164	714.5468139648438	1570.698364257812	14.7723560333252	806.8770751953125	1578.6044921875	-26.12967300415039	785.09912109375	1563.575805664062	187.8632659912109	693.998046875	882.417724609375	151.9159851074219	1033.579711914062	890.844482421875	98.72035980224609	975.0741577148438	917.834228515625	2.175068140029907	735.4490966796875	912.2567138671875	25.52442741394043	748.812744140625	442.5484008789062	-31.89596176147461	715.04345703125	573.8849487304688	13.38245391845703	866.4552612304688	39.16851043701172	-16.95612716674805	794.0799560546875	219.8332824707031	-31.80065727233887	806.43359375	38.67587280273438	-223.3328399658203	878.0333862304688	20.78800773620605	-186.6074676513672	790.3584594726562	39.74949645996094	-116.6493148803711	941.13525390625	33.78002166748047	-24.65518569946289	1064.545166015625	444.0505981445312	69.84612274169922	1045.246704101562	688.3783569335938	28.21244049072266	1109.363525390625	192.0204010009766	420.4278564453125	1078.436645507812	345.6531066894531	142.7943878173828	1049.206176757812	23.58690071105957	349.3008422851562	1009.139099121094	71.22381591796875	369.9187622070312	1120.066284179688	90.17537689208984	403.1451721191406	1063.422729492188	241.4757385253906	434.8125610351562	
263	2.62	936.5387573242188	942.9862060546875	185.305908203125	810.3129272460938	938.6854248046875	214.0149230957031	884.6929931640625	998.751708984375	200.1699676513672	796.021728515625	1189.281127929688	-8.88599967956543	887.7091064453125	1116.315795898438	212.4385681152344	853.8721313476562	1365.249755859375	188.775146484375	802.7568359375	1312.451538085938	40.85483932495117	939.0804443359375	1228.559448242188	206.1638793945312	767.7764282226562	1323.964599609375	238.2577667236328	681.4722290039062	1336.111450195312	181.2017974853516	640.9284057617188	1214.012573242188	228.1328430175781	654.6648559570312	1011.110107421875	238.4765014648438	734.8887939453125	1011.91064453125	261.6180419921875	671.7798461914062	757.7706298828125	163.4903564453125	650.0347290039062	749.906005859375	228.9056549072266	654.2949829101562	905.7186279296875	241.7429809570312	709.59619140625	600.7005004882812	176.3355255126953	671.9319458007812	681.9488525390625	235.8464660644531	671.0296630859375	676.6998901367188	172.5154571533203	984.4498901367188	1359.732055664062	77.94534301757812	1049.343139648438	1297.278198242188	65.21486663818359	1102.887939453125	1037.4521484375	25.72856140136719	1024.349609375	1016.540649414062	73.9505615234375	1049.107543945312	836.475341796875	-120.625114440918	1121.4873046875	818.8598022460938	-103.7184143066406	1112.953369140625	975.5626220703125	-11.34096527099609	1052.490844726562	672.4277954101562	-172.2550354003906	1057.970947265625	746.1067504882812	-174.6587829589844	1116.543823242188	739.4014282226562	-137.7656860351562	899.6317749023438	1578.947509765625	96.66127777099609	710.9332885742188	1572.028198242188	7.544516086578369	802.9498901367188	1579.933837890625	-34.09327697753906	782.9080200195312	1564.5390625	180.0969085693359	691.9283447265625	882.6830444335938	146.1420593261719	1030.102294921875	890.5160522460938	86.03946685791016	970.167236328125	919.0986938476562	-8.59268856048584	730.7721557617188	913.0491943359375	18.99178695678711	747.0335693359375	441.8748168945312	-34.97220611572266	712.9243774414062	573.5299682617188	9.623502731323242	866.38671875	39.29619216918945	-17.1770191192627	793.4117431640625	219.6402282714844	-33.17585372924805	806.4312133789062	37.97324371337891	-223.4817199707031	878.2271728515625	20.8230037689209	-186.7619171142578	790.2354125976562	39.48485565185547	-116.868278503418	941.1517944335938	33.87571334838867	-24.71649742126465	1060.588500976562	444.4649963378906	44.51313018798828	1040.306518554688	689.4671630859375	10.9591817855835	1111.793579101562	200.0171203613281	398.455810546875	1074.72509765625	346.6814880371094	118.1019821166992	1050.1943359375	25.03646469116211	334.1739807128906	1010.977661132812	76.26368713378906	354.3432006835938	1122.480346679688	97.70045471191406	383.2164001464844	1066.042846679688	249.6860961914062	412.8798217773438	
264	2.63	935.5083618164062	943.0517578125	175.782958984375	809.5097045898438	939.0484619140625	206.4055023193359	882.9464721679688	999.6489868164062	191.7196197509766	792.3275146484375	1190.322387695312	-16.64217376708984	885.584228515625	1117.3740234375	203.6508483886719	851.7081298828125	1366.380126953125	180.4816436767578	799.5342407226562	1313.542358398438	32.92168426513672	936.8313598632812	1229.62939453125	197.2652587890625	765.681640625	1324.969970703125	230.5178527832031	679.1264038085938	1337.201416015625	173.9496307373047	637.9862670898438	1214.71240234375	219.8215637207031	649.6609497070312	1011.389343261719	227.4885711669922	729.5497436523438	1011.492126464844	251.7617645263672	664.1333618164062	759.8505859375	147.4255065917969	642.4885864257812	750.6985473632812	212.7262573242188	648.2288818359375	905.9407348632812	228.949462890625	698.8558959960938	602.0953979492188	156.2109222412109	663.389892578125	682.3560791015625	217.9453735351562	662.1713256835938	678.7071533203125	154.5200500488281	981.5635986328125	1360.67578125	68.64795684814453	1046.309936523438	1298.0498046875	55.90693664550781	1098.9462890625	1037.4990234375	19.45175361633301	1020.280944824219	1017.673400878906	67.96527862548828	1045.398193359375	834.3381958007812	-123.8137359619141	1117.545532226562	816.7114868164062	-105.9253616333008	1108.948486328125	975.0821533203125	-16.50235748291016	1048.652099609375	669.416259765625	-172.4779510498047	1054.299438476562	742.9479370117188	-176.1266784667969	1112.475952148438	736.5711059570312	-138.4952697753906	896.7675170898438	1580.042724609375	87.98002624511719	707.3016357421875	1573.3173828125	0.3988399803638458	798.9965209960938	1581.212768554688	-41.96769332885742	780.7089233398438	1565.556518554688	172.4040679931641	689.8803100585938	882.8607177734375	140.5024871826172	1026.407104492188	889.9627685546875	73.0865478515625	965.2001342773438	920.3644409179688	-19.19901657104492	726.153076171875	913.7646484375	12.7440881729126	745.5408325195312	441.100830078125	-37.49073791503906	711.256103515625	572.9747924804688	6.51691198348999	866.3523559570312	39.38458251953125	-17.35345840454102	792.8311767578125	219.4408569335938	-34.17065048217773	806.4375610351562	37.42820358276367	-223.5863037109375	878.375	20.93460083007812	-186.8782806396484	790.1188354492188	39.26289367675781	-117.0210189819336	941.1854248046875	33.9496955871582	-24.77102279663086	1055.869018554688	445.4169616699219	19.40417098999023	1035.02294921875	690.699462890625	-6.397217750549316	1113.332275390625	207.0102691650391	375.7801818847656	1070.252197265625	347.9852905273438	93.44901275634766	1051.46044921875	27.51589012145996	316.0916442871094	1012.722045898438	80.95355987548828	336.3209228515625	1124.598999023438	104.5631866455078	361.4377136230469	1067.585327148438	256.5298767089844	390.6081848144531	
265	2.64	934.520751953125	943.181884765625	166.4070587158203	808.7837524414062	939.4888916015625	198.9633941650391	881.1976928710938	1000.597961425781	183.4073638916016	788.6859741210938	1191.300170898438	-24.21576881408691	883.5099487304688	1118.45654296875	195.0863037109375	849.5632934570312	1367.522705078125	172.3086090087891	796.3328247070312	1314.5986328125	25.12639236450195	934.526123046875	1230.69580078125	188.4360046386719	763.5931396484375	1325.992431640625	222.9366912841797	676.8020629882812	1338.255859375	166.8597106933594	635.0897827148438	1215.408569335938	211.7217254638672	644.4540405273438	1011.708740234375	216.6338500976562	723.9813232421875	1011.015319824219	241.9841766357422	656.1732177734375	762.16455078125	131.3358764648438	634.4985961914062	751.7258911132812	196.4526977539062	641.876220703125	906.2294311523438	216.2097625732422	687.3496704101562	603.802734375	135.8906097412109	654.231689453125	683.0100708007812	199.9022064208984	652.7476806640625	681.0527954101562	136.3768920898438	978.6742553710938	1361.6123046875	59.44461059570312	1043.264404296875	1298.825439453125	46.71218490600586	1095.133666992188	1037.65283203125	13.07007503509521	1016.47802734375	1018.825866699219	62.03683471679688	1041.8388671875	832.226318359375	-126.855094909668	1113.79296875	814.7220458984375	-108.1026077270508	1105.0849609375	974.73828125	-21.75648498535156	1045.0634765625	666.4492797851562	-172.5043029785156	1050.821044921875	739.8661499023438	-177.4238739013672	1108.672729492188	733.91943359375	-139.1721954345703	893.8746337890625	1581.1591796875	79.3675537109375	703.6521606445312	1574.56298828125	-6.667858123779297	795.0186767578125	1582.432739257812	-49.75040435791016	778.4966430664062	1566.639404296875	164.7813415527344	687.8792724609375	883.0003051757812	134.9743041992188	1022.487182617188	889.3118286132812	59.8406867980957	960.1434936523438	921.6633911132812	-29.64689826965332	721.6091918945312	914.4472045898438	6.79934024810791	744.3214721679688	440.3317565917969	-39.504638671875	709.977294921875	572.3499755859375	3.933290958404541	866.3406982421875	39.44144821166992	-17.48516273498535	792.3192749023438	219.2452545166016	-34.88717651367188	806.4524536132812	37.01493072509766	-223.6603240966797	878.4795532226562	21.07353210449219	-186.9587707519531	790.010498046875	39.0784797668457	-117.1250076293945	941.22216796875	34.01914978027344	-24.81806945800781	1050.39599609375	446.9460144042969	-5.324109077453613	1029.405883789062	692.1339111328125	-23.79119873046875	1114.07958984375	212.9079284667969	352.4805908203125	1065.115356445312	349.6100158691406	68.95492553710938	1052.88134765625	30.66252136230469	295.1700134277344	1014.268615722656	85.05690002441406	315.9806518554688	1126.346923828125	110.586555480957	337.99951171875	1068.171142578125	261.9596862792969	368.0433959960938	
